<svg id="Group_13" data-name="Group 13" xmlns="http://www.w3.org/2000/svg" xmlns:xlink="http://www.w3.org/1999/xlink" width="185.536" height="49.582" viewBox="0 0 185.536 49.582">
  <defs>
    <clipPath id="clip-path">
      <rect id="Rectangle_3223" data-name="Rectangle 3223" width="185.536" height="49.582" fill="none"/>
    </clipPath>
  </defs>
  <g id="Group_11" data-name="Group 11" clip-path="url(#clip-path)">
    <rect id="Rectangle_3224" data-name="Rectangle 3224" width="33.861" height="32.652" transform="translate(4.837 5.1)" fill="#fff"/>
    <path id="Path_28" data-name="Path 28" d="M33.18,0H8.656A8.68,8.68,0,0,0,0,8.655V33.181a8.68,8.68,0,0,0,8.656,8.654H33.18a8.347,8.347,0,0,0,.864-.044l7.792,7.792V8.655A8.68,8.68,0,0,0,33.18,0M22.713,7.894a2.312,2.312,0,0,1,4.624,0V10.7H27.1a5.3,5.3,0,0,0-4.391,2.335Zm-3.59,26.049a2.312,2.312,0,0,1-4.624,0V31.134h.233A5.3,5.3,0,0,0,19.123,28.8Zm0-8.109a4.392,4.392,0,0,1-4.391,4.391H10.223a4.39,4.39,0,0,1-3.991-2.556,1.215,1.215,0,0,1,1.1-1.729h6.489v-.981H7.045a1.213,1.213,0,0,1-1.213-1.214V22.378a1.213,1.213,0,0,1,1.213-1.214h6.776v-.982H7.045a1.214,1.214,0,0,1-1.213-1.214V17.6a1.214,1.214,0,0,1,1.213-1.214h6.776v-.981H7.611a1.213,1.213,0,0,1-1-1.895,4.387,4.387,0,0,1,3.617-1.9h4.509A4.392,4.392,0,0,1,19.123,16Zm12.49,4.391H27.1a4.391,4.391,0,0,1-4.391-4.391V16A4.391,4.391,0,0,1,27.1,11.612h4.509A4.391,4.391,0,0,1,35.6,14.168,1.216,1.216,0,0,1,34.5,15.9H28.015v.981H34.79A1.214,1.214,0,0,1,36,18.092v1.366a1.214,1.214,0,0,1-1.214,1.214H28.015v.982H34.79A1.214,1.214,0,0,1,36,22.868v1.366a1.214,1.214,0,0,1-1.214,1.214H28.015v.981h6.208a1.212,1.212,0,0,1,1,1.895,4.384,4.384,0,0,1-3.616,1.9" transform="translate(0 -0.001)" fill="#ff811a"/>
    <path id="Path_29" data-name="Path 29" d="M290.507,34.094a16.21,16.21,0,0,1-23,.022,15.685,15.685,0,0,1-4.763-11.494,15.71,15.71,0,0,1,4.763-11.516,16.221,16.221,0,0,1,22.32-.634l-3.507,5.612a9.766,9.766,0,0,0-14.254-.419,9.5,9.5,0,0,0-2.874,6.958,9.472,9.472,0,0,0,2.874,6.935,9.766,9.766,0,0,0,14.232-.4Z" transform="translate(-182.561 -4.399)" fill="#fff"/>
    <path id="Path_30" data-name="Path 30" d="M369.521,38.507a11.358,11.358,0,0,1,11.358,11.359V61.246h-6.426V60.093a11.373,11.373,0,0,1-16.291-10.227,11.376,11.376,0,0,1,11.358-11.359m0,16.291a4.944,4.944,0,1,0-3.485-1.448,4.749,4.749,0,0,0,3.485,1.448" transform="translate(-248.858 -26.755)" fill="#fff"/>
    <rect id="Rectangle_3219" data-name="Rectangle 3219" width="6.403" height="32.468" transform="translate(136.771 2.023)" fill="#fff"/>
    <rect id="Rectangle_3220" data-name="Rectangle 3220" width="6.403" height="32.468" transform="translate(149.057 2.023)" fill="#fff"/>
    <path id="Path_31" data-name="Path 31" d="M571.341,17.676v6.357h4.933v4.639h-4.933v6.719a4.735,4.735,0,0,0,1.414,3.462,4.917,4.917,0,0,0,3.519,1.471V46.75a11.388,11.388,0,0,1-8.088-3.382,10.852,10.852,0,0,1-3.27-7.977v-.249a.194.194,0,0,0,.022-.091h-.022v-6.38h-2.557V24.033h2.557V17.676Z" transform="translate(-390.738 -12.282)" fill="#fff"/>
    <path id="Path_32" data-name="Path 32" d="M531.25,44.847a8.408,8.408,0,0,1-3.212-.616V65.218h6.424V44.231a8.365,8.365,0,0,1-3.212.616" transform="translate(-366.891 -30.733)" fill="#fff"/>
    <path id="Path_33" data-name="Path 33" d="M530.318,13.892a3.631,3.631,0,0,1-3.62-3.62,3.631,3.631,0,1,1,7.263,0,3.631,3.631,0,0,1-3.643,3.62" transform="translate(-365.96 -4.606)" fill="#ff811a"/>
    <path id="Path_34" data-name="Path 34" d="M387.1,71.126a3.631,3.631,0,1,1,2.579-1.064,3.482,3.482,0,0,1-2.579,1.064" transform="translate(-266.45 -44.373)" fill="#ff811a"/>
    <path id="Path_35" data-name="Path 35" d="M264.56,136.656l-.694,2.093h-1.479l2.505-6.943h1.741l2.455,6.943h-1.509l-.684-2.093Zm.352-1.1h1.63l-.805-2.566Z" transform="translate(-182.311 -91.581)" fill="#ff811a"/>
    <path id="Path_36" data-name="Path 36" d="M292.115,139.029v3.019h-1.388V139.22c0-.222,0-.473-.02-.745a.926.926,0,0,0-1.026-.946c-.674,0-1.208.583-1.208,2.073v2.445h-1.389v-5.353h1.389v.865l.413-.634a2.068,2.068,0,0,1,1.288-.372,1.679,1.679,0,0,1,1.9,1.5,8.521,8.521,0,0,1,.04.976" transform="translate(-199.471 -94.88)" fill="#ff811a"/>
    <path id="Path_37" data-name="Path 37" d="M310.707,141.263l-.262.573a2.325,2.325,0,0,1-1.328.352,1.565,1.565,0,0,1-1.721-1.559c0-1.177,1.006-1.841,2.948-1.841h.342v-.11a4.374,4.374,0,0,0-.02-.5c-.04-.372-.282-.644-.825-.644s-.855.322-.9.906l-1.348.01a2.034,2.034,0,0,1,2.294-1.892c1.5,0,2.062.654,2.143,1.58.02.251.03.533.03.825v1.73a9.2,9.2,0,0,0,.1,1.358h-1.358Zm-.02-1.187v-.433c-1.107-.08-1.852.171-1.852.876,0,.473.322.694.815.694a1.028,1.028,0,0,0,1.036-1.137" transform="translate(-213.585 -94.88)" fill="#ff811a"/>
    <path id="Path_38" data-name="Path 38" d="M329,135.968c0,.211,0,.352.01.493.03.272.151.362.624.332v.956a7.623,7.623,0,0,1-.855.04c-.684,0-1.117-.252-1.147-.946-.02-.242-.02-.493-.02-.845v-5.675H329Z" transform="translate(-227.63 -90.551)" fill="#ff811a"/>
    <path id="Path_39" data-name="Path 39" d="M339.241,142.57c-.563,1.449-1.147,1.912-2.234,1.912a3.89,3.89,0,0,1-.624-.041v-.956a2.836,2.836,0,0,0,.413.02.98.98,0,0,0,1.006-.714l.071-.171-2.184-5.6h1.549l1.328,4.3,1.308-4.3h1.52Z" transform="translate(-233.243 -95.201)" fill="#ff811a"/>
    <path id="Path_40" data-name="Path 40" d="M360.494,142.46h-4.427v-.875l2.9-3.512h-2.717v-.926h4.206v.916l-2.878,3.471h2.918Z" transform="translate(-247.402 -95.293)" fill="#ff811a"/>
    <path id="Path_41" data-name="Path 41" d="M378.086,139.733h-3.8c.09,1.127.593,1.479,1.237,1.479a1.046,1.046,0,0,0,1.117-.905h1.388a2.388,2.388,0,0,1-2.536,1.881,2.5,2.5,0,0,1-2.606-2.8,2.653,2.653,0,0,1,2.717-2.838,2.477,2.477,0,0,1,2.505,2.707,4.053,4.053,0,0,1-.021.473m-3.763-.905h2.354c-.091-.845-.473-1.3-1.137-1.3-.644,0-1.1.413-1.218,1.3" transform="translate(-259.087 -94.88)" fill="#ff811a"/>
    <rect id="Rectangle_3221" data-name="Rectangle 3221" width="0.906" height="10.062" transform="translate(122.773 39.118)" fill="#ff811a"/>
    <path id="Path_42" data-name="Path 42" d="M421.009,132.893v5.856h-1.388v-5.856h-2.355v-1.087h6.1v1.087Z" transform="translate(-289.924 -91.581)" fill="#ff811a"/>
    <path id="Path_43" data-name="Path 43" d="M441.424,136.627v1.117c-1.157-.08-1.731.433-1.731,1.871v2.455H438.3v-5.353h1.389v.976l.422-.745a1.392,1.392,0,0,1,.916-.362,1.507,1.507,0,0,1,.393.04" transform="translate(-304.543 -94.903)" fill="#ff811a"/>
    <path id="Path_44" data-name="Path 44" d="M453.98,141.263l-.262.573a2.325,2.325,0,0,1-1.328.352,1.565,1.565,0,0,1-1.721-1.559c0-1.177,1.006-1.841,2.948-1.841h.342v-.11a4.38,4.38,0,0,0-.02-.5c-.04-.372-.282-.644-.825-.644s-.855.322-.9.906l-1.348.01a2.034,2.034,0,0,1,2.294-1.892c1.5,0,2.062.654,2.143,1.58.02.251.03.533.03.825v1.73a9.2,9.2,0,0,0,.1,1.358h-1.358Zm-.02-1.187v-.433c-1.107-.08-1.852.171-1.852.876,0,.473.322.694.815.694a1.028,1.028,0,0,0,1.036-1.137" transform="translate(-313.134 -94.88)" fill="#ff811a"/>
    <path id="Path_45" data-name="Path 45" d="M475.393,137.718H474v-.825l-.4.594a2.443,2.443,0,0,1-1.389.372,2.412,2.412,0,0,1-2.384-2.716c0-1.942,1.187-2.918,2.565-2.918a2.5,2.5,0,0,1,1.258.3l.352.553v-2.757h1.389ZM474,135.1v-.262c0-1.207-.694-1.64-1.338-1.64-.8,0-1.4.614-1.4,1.852,0,1.1.523,1.831,1.348,1.831.765,0,1.389-.473,1.389-1.781" transform="translate(-326.446 -90.551)" fill="#ff811a"/>
    <path id="Path_46" data-name="Path 46" d="M497.123,139.733h-3.8c.09,1.127.593,1.479,1.237,1.479a1.046,1.046,0,0,0,1.117-.905h1.388a2.388,2.388,0,0,1-2.535,1.881,2.5,2.5,0,0,1-2.606-2.8,2.653,2.653,0,0,1,2.717-2.838,2.477,2.477,0,0,1,2.505,2.707,4.126,4.126,0,0,1-.02.473m-3.763-.905h2.354c-.091-.845-.473-1.3-1.137-1.3-.644,0-1.1.413-1.218,1.3" transform="translate(-341.796 -94.88)" fill="#ff811a"/>
    <rect id="Rectangle_3222" data-name="Rectangle 3222" width="0.906" height="10.062" transform="translate(159.101 39.118)" fill="#ff811a"/>
    <path id="Path_47" data-name="Path 47" d="M543.491,138.749h-5.01v-6.943h4.91v1.087h-3.521v1.831h3.27v1.1h-3.27v1.832h3.622Z" transform="translate(-374.146 -91.582)" fill="#ff811a"/>
    <path id="Path_48" data-name="Path 48" d="M561.081,141.263l-.262.573a2.325,2.325,0,0,1-1.328.352,1.565,1.565,0,0,1-1.721-1.559c0-1.177,1.006-1.841,2.948-1.841h.342v-.11a4.374,4.374,0,0,0-.02-.5c-.04-.372-.282-.644-.825-.644s-.855.322-.9.906l-1.348.01a2.034,2.034,0,0,1,2.294-1.892c1.5,0,2.062.654,2.143,1.58.02.251.03.533.03.825v1.73a9.191,9.191,0,0,0,.1,1.358h-1.358Zm-.02-1.187v-.433c-1.107-.08-1.852.171-1.852.876,0,.473.322.694.815.694a1.028,1.028,0,0,0,1.036-1.137" transform="translate(-387.55 -94.88)" fill="#ff811a"/>
    <path id="Path_49" data-name="Path 49" d="M581.235,136.627v1.117c-1.157-.08-1.731.433-1.731,1.871v2.455h-1.389v-5.353H579.5v.976l.422-.745a1.392,1.392,0,0,1,.916-.362,1.507,1.507,0,0,1,.393.04" transform="translate(-401.686 -94.903)" fill="#ff811a"/>
    <path id="Path_50" data-name="Path 50" d="M596.5,139.029v3.019h-1.388V139.22c0-.222,0-.473-.02-.745a.926.926,0,0,0-1.026-.946c-.674,0-1.208.583-1.208,2.073v2.445H591.47v-5.353h1.389v.865l.413-.634a2.068,2.068,0,0,1,1.288-.372,1.679,1.679,0,0,1,1.9,1.5,8.542,8.542,0,0,1,.04.976" transform="translate(-410.965 -94.88)" fill="#ff811a"/>
    <path id="Path_51" data-name="Path 51" d="M188.4,114.429v-5.211h3.061v5.211h14.627v3.5H191.459v5.212H188.4v-8.715Z" transform="translate(-130.903 -75.886)" fill="#fff"/>
    <path id="Path_52" data-name="Path 52" d="M188.358,69.674v-3.5h7.1V59.545h-7.1v-3.5h17.7v3.5h-7.535v6.625h7.535v3.5Z" transform="translate(-130.875 -38.939)" fill="#fff"/>
    <path id="Path_53" data-name="Path 53" d="M191.459,6.332v7.842h4.032V7.991h3.073v6.183h4.462V6.332h3.061V17.677H188.4V6.332Z" transform="translate(-130.903 -4.399)" fill="#fff"/>
  </g>
</svg>
