<svg xmlns="http://www.w3.org/2000/svg" xmlns:xlink="http://www.w3.org/1999/xlink" width="1497.169" height="405.606" viewBox="0 0 1497.169 405.606">
  <defs>
    <clipPath id="clip-path">
      <rect id="Rectangle_3223" data-name="Rectangle 3223" width="1305.124" height="348.777" fill="none"/>
    </clipPath>
  </defs>
  <g id="the_call_it_logo_Beta" data-name="the call it logo Beta" transform="translate(-1215.831 -3506)">
    <g id="Group_14" data-name="Group 14" transform="translate(1215.831 3562.829)">
      <g id="Group_11" data-name="Group 11" clip-path="url(#clip-path)">
        <rect id="Rectangle_3224" data-name="Rectangle 3224" width="238.189" height="229.683" transform="translate(34.027 35.875)" fill="#fff"/>
        <path id="Path_28" data-name="Path 28" d="M233.4,0H60.888A61.061,61.061,0,0,0,0,60.878V233.4a61.061,61.061,0,0,0,60.888,60.877H233.4a58.709,58.709,0,0,0,6.077-.311l54.809,54.809V60.878A61.061,61.061,0,0,0,233.4,0M159.769,55.522a16.263,16.263,0,0,1,32.525,0V75.279h-1.638A37.272,37.272,0,0,0,159.769,91.7Zm-25.25,183.235a16.263,16.263,0,0,1-32.525,0V219h1.638a37.268,37.268,0,0,0,30.887-16.425Zm0-57.041A30.892,30.892,0,0,1,103.632,212.6H71.914a30.881,30.881,0,0,1-28.073-17.981,8.548,8.548,0,0,1,7.73-12.161H97.22v-6.9H49.558a8.535,8.535,0,0,1-8.531-8.54v-9.609a8.535,8.535,0,0,1,8.531-8.54H97.22v-6.908H49.558a8.537,8.537,0,0,1-8.531-8.54v-9.611a8.537,8.537,0,0,1,8.531-8.54H97.22v-6.9H53.538a8.534,8.534,0,0,1-7.069-13.329A30.86,30.86,0,0,1,71.914,81.676h31.718a30.892,30.892,0,0,1,30.887,30.887ZM222.375,212.6H190.657a30.887,30.887,0,0,1-30.887-30.887V112.563a30.887,30.887,0,0,1,30.887-30.887h31.718a30.887,30.887,0,0,1,28.071,17.981,8.551,8.551,0,0,1-7.739,12.161H197.069v6.9h47.653a8.536,8.536,0,0,1,8.54,8.538v9.611a8.537,8.537,0,0,1-8.54,8.54H197.069v6.908h47.653a8.537,8.537,0,0,1,8.54,8.54v9.611a8.538,8.538,0,0,1-8.54,8.54H197.069v6.9H240.74a8.528,8.528,0,0,1,7.069,13.329A30.84,30.84,0,0,1,222.375,212.6" transform="translate(0 0.001)" fill="#ff811a"/>
        <path id="Path_29" data-name="Path 29" d="M458.025,201.625q-33.582,33.744-81.009,33.736-47.272,0-80.765-33.579t-33.5-80.851q0-47.432,33.5-81.01t80.765-33.59q43.935,0,76.24,29.127L428.586,74.935Q407.73,51.692,377.015,51.69q-28.5,0-48.7,20.3Q308.1,92.282,308.1,120.931q0,28.492,20.216,48.783,20.2,20.28,48.7,20.291,30.72,0,51.412-23.077Z" transform="translate(301.303 7.26)" fill="#fff"/>
        <path id="Path_30" data-name="Path 30" d="M438.061,38.507q33.1,0,56.5,23.4t23.4,56.5v80.056h-45.2v-8.115a77.212,77.212,0,0,1-34.7,7.956q-32.948,0-56.423-23.475t-23.475-56.423q0-33.1,23.475-56.5t56.423-23.4m0,114.6a34.778,34.778,0,0,0,34.7-34.7,34.7,34.7,0,1,0-59.209,24.512A33.4,33.4,0,0,0,438.061,153.1" transform="translate(410.722 44.158)" fill="#fff"/>
        <rect id="Rectangle_3219" data-name="Rectangle 3219" width="45.043" height="228.388" transform="translate(962.092 14.231)" fill="#fff"/>
        <rect id="Rectangle_3220" data-name="Rectangle 3220" width="45.043" height="228.388" transform="translate(1048.52 14.231)" fill="#fff"/>
        <path id="Path_31" data-name="Path 31" d="M625.542,17.676V62.395h34.7V95.028h-34.7v47.265a33.308,33.308,0,0,0,9.946,24.355q9.953,10.031,24.751,10.345v45.2q-33.9-.8-56.9-23.79-23.008-23.008-23-56.109v-1.75a1.369,1.369,0,0,0,.157-.638h-.157V95.028H562.359V62.395h17.984V17.676Z" transform="translate(644.882 20.27)" fill="#fff"/>
        <path id="Path_32" data-name="Path 32" d="M550.633,48.563a59.142,59.142,0,0,1-22.594-4.332V191.861h45.191V44.231a58.842,58.842,0,0,1-22.6,4.332" transform="translate(605.525 50.722)" fill="#fff"/>
        <path id="Path_33" data-name="Path 33" d="M552.163,57.719a24.494,24.494,0,0,1-17.983-7.481A24.5,24.5,0,0,1,526.7,32.253a24.674,24.674,0,0,1,7.482-18.14,25.539,25.539,0,0,1,36.125,0,24.7,24.7,0,0,1,7.482,18.14A24.53,24.53,0,0,1,570.3,50.238a24.676,24.676,0,0,1-18.142,7.481" transform="translate(603.988 7.602)" fill="#ff811a"/>
        <path id="Path_34" data-name="Path 34" d="M408.948,114.953a25.547,25.547,0,0,1-25.467-25.467,25.545,25.545,0,1,1,43.609,17.985,24.68,24.68,0,0,1-18.142,7.481" transform="translate(439.755 73.235)" fill="#ff811a"/>
        <path id="Path_35" data-name="Path 35" d="M277.675,165.92l-4.884,14.722H262.386l17.623-48.836h12.247l17.268,48.836H298.909L294.1,165.92Zm2.478-7.713h11.465l-5.663-18.048Z" transform="translate(300.89 151.148)" fill="#ff811a"/>
        <path id="Path_36" data-name="Path 36" d="M322.473,153.964V175.2h-9.765V155.31c0-1.559,0-3.325-.144-5.238-.281-3.963-2.475-6.653-7.217-6.653s-8.495,4.1-8.495,14.581v17.2h-9.767V137.546h9.767v6.086l2.9-4.459a14.549,14.549,0,0,1,9.059-2.619c8,0,12.6,3.963,13.376,10.545a59.918,59.918,0,0,1,.281,6.865" transform="translate(329.212 156.593)" fill="#ff811a"/>
        <path id="Path_37" data-name="Path 37" d="M330.683,169.678l-1.84,4.034a16.354,16.354,0,0,1-9.343,2.475c-6.513,0-12.1-3.821-12.1-10.97,0-8.278,7.078-12.951,20.737-12.951h2.407v-.777a30.755,30.755,0,0,0-.142-3.54c-.283-2.619-1.982-4.53-5.8-4.53-3.892,0-6.015,2.265-6.3,6.372l-9.484.069c.281-8.493,7.146-13.306,16.137-13.306,10.545,0,14.508,4.6,15.075,11.114.139,1.767.212,3.748.212,5.8v12.172a64.7,64.7,0,0,0,.708,9.555h-9.555Zm-.142-8.353v-3.044c-7.786-.565-13.024,1.2-13.024,6.159,0,3.325,2.267,4.884,5.734,4.884,3.963,0,7.29-2.761,7.29-8" transform="translate(352.506 156.593)" fill="#ff811a"/>
        <path id="Path_38" data-name="Path 38" d="M337.377,170.029c0,1.485,0,2.477.071,3.469.212,1.911,1.063,2.546,4.39,2.334v6.726a53.6,53.6,0,0,1-6.018.283c-4.813,0-7.857-1.771-8.068-6.653-.142-1.7-.142-3.469-.142-5.946V130.323h9.765Z" transform="translate(375.686 149.447)" fill="#ff811a"/>
        <path id="Path_39" data-name="Path 39" d="M360.672,176.082c-3.962,10.193-8.067,13.449-15.712,13.449a27.363,27.363,0,0,1-4.388-.285v-6.721a19.955,19.955,0,0,0,2.9.142c3.326,0,5.519-1.275,7.076-5.025l.5-1.2-15.36-39.421h10.9l9.343,30.22,9.2-30.22H375.82Z" transform="translate(384.95 157.122)" fill="#ff811a"/>
        <path id="Path_40" data-name="Path 40" d="M387.208,174.518h-31.14v-6.157l20.383-24.7H357.34v-6.511h29.586v6.44l-20.242,24.419h20.523Z" transform="translate(408.319 157.273)" fill="#ff811a"/>
        <path id="Path_41" data-name="Path 41" d="M409.475,158.919h-26.75c.635,7.928,4.173,10.4,8.7,10.4,4.177,0,7.221-2.333,7.857-6.367h9.766c-1.911,8.776-8.987,13.232-17.836,13.232-10.332,0-18.33-6.44-18.33-19.673,0-11.539,7.573-19.96,19.112-19.96s17.623,8.776,17.623,19.039a28.531,28.531,0,0,1-.144,3.325m-26.469-6.369h16.562c-.637-5.944-3.325-9.13-8-9.13-4.53,0-7.715,2.9-8.565,9.13" transform="translate(427.603 156.593)" fill="#ff811a"/>
        <rect id="Rectangle_3221" data-name="Rectangle 3221" width="6.372" height="70.776" transform="translate(863.629 275.168)" fill="#ff811a"/>
        <path id="Path_42" data-name="Path 42" d="M443.6,139.451v41.192h-9.765V139.451H417.266v-7.645h42.894v7.645Z" transform="translate(478.498 151.148)" fill="#ff811a"/>
        <path id="Path_43" data-name="Path 43" d="M460.247,136.87v7.855c-8.141-.565-12.174,3.044-12.174,13.164V175.16H438.3V137.508h9.768v6.865l2.97-5.238a9.8,9.8,0,0,1,6.441-2.548,10.6,10.6,0,0,1,2.763.283" transform="translate(502.624 156.63)" fill="#ff811a"/>
        <path id="Path_44" data-name="Path 44" d="M473.955,169.678l-1.84,4.034a16.352,16.352,0,0,1-9.342,2.475c-6.513,0-12.1-3.821-12.1-10.97,0-8.278,7.075-12.951,20.737-12.951h2.407v-.777a30.8,30.8,0,0,0-.142-3.54c-.284-2.619-1.981-4.53-5.8-4.53-3.892,0-6.015,2.265-6.3,6.372l-9.484.069c.281-8.493,7.146-13.306,16.137-13.306,10.545,0,14.507,4.6,15.074,11.114.14,1.767.212,3.748.212,5.8v12.172a64.692,64.692,0,0,0,.709,9.555h-9.556Zm-.142-8.353v-3.044c-7.786-.565-13.024,1.2-13.024,6.159,0,3.325,2.267,4.884,5.734,4.884,3.964,0,7.291-2.761,7.291-8" transform="translate(516.803 156.593)" fill="#ff811a"/>
        <path id="Path_45" data-name="Path 45" d="M508.968,182.343H499.2v-5.8l-2.832,4.175c-2.123,1.627-5.944,2.617-9.768,2.617-10.545,0-16.772-8-16.772-19.108,0-13.66,8.351-20.525,18.046-20.525,3.117,0,6.938.779,8.848,2.123l2.477,3.892V130.323h9.768Zm-9.768-18.4V162.1c0-8.493-4.884-11.537-9.413-11.537-5.661,0-9.838,4.317-9.838,13.024,0,7.713,3.681,12.881,9.484,12.881,5.38,0,9.768-3.325,9.768-12.528" transform="translate(538.774 149.447)" fill="#ff811a"/>
        <path id="Path_46" data-name="Path 46" d="M528.515,158.919H501.762c.635,7.928,4.173,10.4,8.7,10.4,4.177,0,7.221-2.333,7.857-6.367h9.766c-1.911,8.776-8.986,13.232-17.835,13.232-10.332,0-18.331-6.44-18.331-19.673,0-11.539,7.574-19.96,19.113-19.96s17.622,8.776,17.622,19.039a29.019,29.019,0,0,1-.142,3.325m-26.472-6.369H518.6c-.638-5.944-3.325-9.13-8-9.13-4.529,0-7.715,2.9-8.566,9.13" transform="translate(564.108 156.593)" fill="#ff811a"/>
        <rect id="Rectangle_3222" data-name="Rectangle 3222" width="6.372" height="70.776" transform="translate(1119.169 275.168)" fill="#ff811a"/>
        <path id="Path_47" data-name="Path 47" d="M573.726,180.643H538.48V131.806h34.539v7.645H548.249v12.88h23v7.713h-23v12.885h25.477Z" transform="translate(617.499 151.148)" fill="#ff811a"/>
        <path id="Path_48" data-name="Path 48" d="M581.057,169.678l-1.84,4.034a16.354,16.354,0,0,1-9.343,2.475c-6.513,0-12.1-3.821-12.1-10.97,0-8.278,7.078-12.951,20.737-12.951h2.407v-.777a30.755,30.755,0,0,0-.142-3.54c-.283-2.619-1.981-4.53-5.8-4.53-3.892,0-6.015,2.265-6.3,6.372l-9.485.069c.282-8.493,7.147-13.306,16.137-13.306,10.545,0,14.508,4.6,15.074,11.114.14,1.767.213,3.748.213,5.8v12.172a64.664,64.664,0,0,0,.708,9.555h-9.555Zm-.142-8.353v-3.044c-7.786-.565-13.025,1.2-13.025,6.159,0,3.325,2.267,4.884,5.735,4.884,3.962,0,7.29-2.761,7.29-8" transform="translate(639.621 156.593)" fill="#ff811a"/>
        <path id="Path_49" data-name="Path 49" d="M600.058,136.87v7.855c-8.141-.565-12.174,3.044-12.174,13.164V175.16h-9.768V137.508h9.768v6.865l2.971-5.238a9.8,9.8,0,0,1,6.44-2.548,10.6,10.6,0,0,1,2.763.283" transform="translate(662.952 156.63)" fill="#ff811a"/>
        <path id="Path_50" data-name="Path 50" d="M626.859,153.964V175.2h-9.766V155.31c0-1.559,0-3.325-.144-5.238-.281-3.963-2.475-6.653-7.218-6.653s-8.494,4.1-8.494,14.581v17.2H591.47V137.546h9.768v6.086l2.9-4.459a14.549,14.549,0,0,1,9.059-2.619c8,0,12.6,3.963,13.377,10.545a60.167,60.167,0,0,1,.281,6.865" transform="translate(678.265 156.593)" fill="#ff811a"/>
        <path id="Path_51" data-name="Path 51" d="M188.4,145.875V109.218h21.53v36.658H312.821v24.642H209.928V207.18H188.4v-61.3Z" transform="translate(216.045 125.245)" fill="#fff"/>
        <path id="Path_52" data-name="Path 52" d="M188.358,151.933V127.291h49.976V80.685H188.358V56.042H312.865V80.685h-53v46.606h53v24.642Z" transform="translate(215.999 64.266)" fill="#fff"/>
        <path id="Path_53" data-name="Path 53" d="M209.928,6.332V61.5h28.361V18.006H259.9V61.5H291.29V6.332h21.532V86.139H188.4V6.332Z" transform="translate(216.045 7.261)" fill="#fff"/>
      </g>
    </g>
    <text id="Beta" transform="translate(2521 3592)" fill="#d5ff22" font-size="93" font-family="ProximaNova-Semibold, Proxima Nova" font-weight="600"><tspan x="0" y="0">Beta</tspan></text>
  </g>
</svg>
