<svg xmlns="http://www.w3.org/2000/svg" width="20" height="19.167" viewBox="0 0 20 19.167">
  <g id="Group_156" data-name="Group 156" transform="translate(-2862.469 -868)">
    <path id="Path_463" data-name="Path 463" d="M115.5,46.3h-3.75V45.022a1.265,1.265,0,0,0-1.25-1.278h-5a1.265,1.265,0,0,0-1.25,1.278V46.3H100.5A2.529,2.529,0,0,0,98,48.855v11.5a2.528,2.528,0,0,0,2.5,2.556h15a2.528,2.528,0,0,0,2.5-2.555v-11.5a2.529,2.529,0,0,0-2.5-2.556Zm-10-.9c0-.352.28-.38.625-.38h3.75c.345,0,.625.027.625.38v.9h-5Zm11.25,14.953a1.265,1.265,0,0,1-1.25,1.278h-15a1.265,1.265,0,0,1-1.25-1.278V53.327h6.675v1.5a1.244,1.244,0,0,0,1.226,1.254h1.7a1.247,1.247,0,0,0,1.226-1.254v-1.5h6.675ZM107.175,54.8V51.855h1.65V54.8Zm9.575-2.75h-6.675v-.219a1.244,1.244,0,0,0-1.226-1.254h-1.7a1.242,1.242,0,0,0-1.226,1.254v.219H99.25V48.855a1.265,1.265,0,0,1,1.25-1.278h15a1.265,1.265,0,0,1,1.25,1.278Z" transform="translate(2764.469 824.256)" fill="#e27d27"/>
  </g>
</svg>
