<svg xmlns="http://www.w3.org/2000/svg" width="20" height="18" viewBox="0 0 20 18">
  <g id="Group_215" data-name="Group 215" transform="translate(-3227.556 -2191)">
    <path id="Path_490" data-name="Path 490" d="M236.793,207h2.7V210.4h-2.7Zm-6.4-1.775h2.7V210.4h-2.7Zm3.2-1.774h2.7V210.4h-2.7Zm-.248-.5a.247.247,0,0,0-.247.247v1.53h-2.977a.247.247,0,0,0-.223.246v5.66a.248.248,0,0,0,.25.247h9.6a.246.246,0,0,0,.248-.247v-3.885a.247.247,0,0,0-.248-.248h-2.951v-3.3a.25.25,0,0,0-.248-.247h-3.2Z" transform="translate(3002.61 1993.813)" fill="#e27d27" fill-rule="evenodd"/>
    <path id="Path_491" data-name="Path 491" d="M296.187,68l.51.866a.251.251,0,0,0,.159.116l.972.222-.683.746a.246.246,0,0,0-.064.192l.113,1.125-.888-.489a.25.25,0,0,0-.24,0l-.886.489.112-1.125a.248.248,0,0,0-.064-.192l-.682-.746.972-.222a.247.247,0,0,0,.158-.116Zm-.213-.612-.67,1.134-1.281.3a.248.248,0,0,0-.129.407l.9.976-.15,1.487a.248.248,0,0,0,.366.239l1.181-.651,1.181.651a.247.247,0,0,0,.365-.239l-.148-1.487.894-.976a.247.247,0,0,0-.127-.407l-1.282-.3-.671-1.134A.232.232,0,0,0,295.974,67.384Z" transform="translate(2941.368 2123.757)" fill="#e27d27"/>
    <path id="Path_492" data-name="Path 492" d="M109.784,84.344a1.609,1.609,0,0,1-1.158.83,2.182,2.182,0,0,1-1.522-.579,4.691,4.691,0,0,1,1.417-.518,2,2,0,0,1,1.263.267Zm-4.079-2.367A1.879,1.879,0,0,1,107,82.75a1.6,1.6,0,0,1-1.38.34,2.191,2.191,0,0,1-1.2-1.105,7.338,7.338,0,0,1,1.286-.007ZM102.914,78.5a7.342,7.342,0,0,1,1.3.531,2.05,2.05,0,0,1,.78,1.192,1.6,1.6,0,0,1-1.4-.232,2.212,2.212,0,0,1-.673-1.491Zm-.151-3.786a7.17,7.17,0,0,1,1.006.977,2.051,2.051,0,0,1,.285,1.4,1.611,1.611,0,0,1-1.216-.74,2.219,2.219,0,0,1-.075-1.635Zm1.392-3.627a7.3,7.3,0,0,1,.5,1.315,2.051,2.051,0,0,1-.337,1.385,1.62,1.62,0,0,1-.786-1.191,2.207,2.207,0,0,1,.627-1.51Zm2.378-2.752a7.027,7.027,0,0,1,.08,1.4,1.96,1.96,0,0,1-.657,1.242,1.626,1.626,0,0,1-.435-1.361,2.2,2.2,0,0,1,1.012-1.283Zm.065-.634a2.774,2.774,0,0,0-1.53,1.827,2.1,2.1,0,0,0,.534,1.805,8.474,8.474,0,0,0-.528.853,11.847,11.847,0,0,0-.627-1.639.25.25,0,0,0-.4-.089,2.737,2.737,0,0,0-.98,2.175,2.146,2.146,0,0,0,1.2,1.712,8.623,8.623,0,0,0-.166,1.018,10.684,10.684,0,0,0-1.3-1.263.246.246,0,0,0-.4.091,2.757,2.757,0,0,0,.037,2.389,2.116,2.116,0,0,0,1.732,1.023,8.591,8.591,0,0,0,.225,1,9.727,9.727,0,0,0-1.671-.683.233.233,0,0,0-.338.233,2.794,2.794,0,0,0,.916,2.2,2.1,2.1,0,0,0,1.991.3,8.438,8.438,0,0,0,.586.848,11.757,11.757,0,0,0-1.863.023.245.245,0,0,0-.221.348,2.771,2.771,0,0,0,1.7,1.666,2.1,2.1,0,0,0,1.943-.5,8.8,8.8,0,0,0,.851.564,10.583,10.583,0,0,0-1.732.719.243.243,0,0,0-.076.406,2.688,2.688,0,0,0,2.2.912,2.116,2.116,0,0,0,1.623-1.2c.245.067.492.126.746.171a.248.248,0,1,0,.085-.489,8.021,8.021,0,0,1-5.066-12.589c.405-.546.963-.931,1.047-1.754a9.942,9.942,0,0,0-.154-1.883.245.245,0,0,0-.361-.2Z" transform="translate(3125.407 2123.351)" fill="#e27d27"/>
    <path id="Path_493" data-name="Path 493" d="M380.6,84.344a1.608,1.608,0,0,0,1.157.83,2.181,2.181,0,0,0,1.522-.579,4.7,4.7,0,0,0-1.415-.518,2,2,0,0,0-1.263.267Zm4.079-2.367a1.878,1.878,0,0,0-1.3.773,1.6,1.6,0,0,0,1.381.34,2.2,2.2,0,0,0,1.2-1.105,7.333,7.333,0,0,0-1.286-.007Zm2.79-3.481a7.363,7.363,0,0,0-1.3.531,2.056,2.056,0,0,0-.78,1.192,1.606,1.606,0,0,0,1.4-.232,2.208,2.208,0,0,0,.672-1.491Zm.151-3.786a7.338,7.338,0,0,0-1.006.977,2.05,2.05,0,0,0-.284,1.4,1.608,1.608,0,0,0,1.215-.74,2.21,2.21,0,0,0,.075-1.635Zm-1.391-3.627a7.483,7.483,0,0,0-.5,1.315,2.053,2.053,0,0,0,.337,1.385,1.624,1.624,0,0,0,.787-1.191,2.215,2.215,0,0,0-.627-1.51Zm-2.378-2.752a7.017,7.017,0,0,0-.081,1.4,1.953,1.953,0,0,0,.656,1.242,1.625,1.625,0,0,0,.435-1.361A2.2,2.2,0,0,0,383.846,68.331Zm-.065-.634a2.783,2.783,0,0,1,1.53,1.827,2.112,2.112,0,0,1-.534,1.805,8.226,8.226,0,0,1,.526.853,11.682,11.682,0,0,1,.629-1.639.25.25,0,0,1,.4-.089,2.734,2.734,0,0,1,.979,2.175,2.143,2.143,0,0,1-1.2,1.712,8.794,8.794,0,0,1,.166,1.018,10.718,10.718,0,0,1,1.3-1.263.247.247,0,0,1,.4.091,2.759,2.759,0,0,1-.038,2.389,2.113,2.113,0,0,1-1.73,1.023,8.452,8.452,0,0,1-.225,1,9.684,9.684,0,0,1,1.671-.683.233.233,0,0,1,.338.233,2.8,2.8,0,0,1-.916,2.2,2.1,2.1,0,0,1-1.991.3,8.774,8.774,0,0,1-.586.848,11.754,11.754,0,0,1,1.862.023.243.243,0,0,1,.219.348,2.768,2.768,0,0,1-1.7,1.666,2.1,2.1,0,0,1-1.943-.5,8.437,8.437,0,0,1-.851.564,10.613,10.613,0,0,1,1.733.719.243.243,0,0,1,.075.406,2.685,2.685,0,0,1-2.2.912,2.111,2.111,0,0,1-1.621-1.2c-.246.067-.494.126-.746.171a.248.248,0,1,1-.084-.489,8.021,8.021,0,0,0,5.066-12.589c-.405-.546-.964-.931-1.048-1.754a9.925,9.925,0,0,1,.155-1.883.244.244,0,0,1,.361-.2Z" transform="translate(2859.326 2123.351)" fill="#e27d27"/>
  </g>
</svg>
