<svg xmlns="http://www.w3.org/2000/svg" width="20" height="18" viewBox="0 0 20 18">
  <g id="Group_214" data-name="Group 214" transform="translate(-158 -265)">
    <path id="Path_465" data-name="Path 465" d="M262.383,64.519h-6.451a.69.69,0,0,0-.676.685V81.157c0,.215,0,.432,0,.646v.027a.69.69,0,0,0,.676.685h6.451a.69.69,0,0,0,.676-.685V65.878c0-.215,0-.432,0-.646V65.2a.676.676,0,1,0-1.351,0V81.157c0,.215,0,.432,0,.646v.027l.676-.685h-6.451l.676.685V65.878c0-.215,0-.432,0-.646V65.2l-.676.685h6.451a.685.685,0,0,0,0-1.37Z" transform="translate(-91.156 200.482)" fill="#e27d27"/>
    <path id="Path_466" data-name="Path 466" d="M104.569,197.248H98.439a.667.667,0,0,0-.639.676v9.589c0,.442-.009.883,0,1.324v.018a.667.667,0,0,0,.639.676h6.131a.667.667,0,0,0,.639-.676v-9.589c0-.442.009-.883,0-1.324v-.018a.64.64,0,1,0-1.278,0v9.589c0,.442-.011.885,0,1.324v.018l.639-.676H98.439l.639.676v-9.589c0-.442.011-.885,0-1.324v-.018l-.639.676h6.131a.677.677,0,0,0,0-1.352Z" transform="translate(60.204 73.467)" fill="#e27d27"/>
    <path id="Path_467" data-name="Path 467" d="M418.722,300.214h-6.175a.67.67,0,0,0-.644.676v6.692a.67.67,0,0,0,.644.676h6.175a.67.67,0,0,0,.644-.676V300.89a.644.644,0,1,0-1.287,0v6.692l.644-.676h-6.175l.644.676V300.89l-.644.676h6.175a.677.677,0,0,0,0-1.352Z" transform="translate(-241.366 -25.258)" fill="#e27d27"/>
  </g>
</svg>
